<svg width="60" height="60" viewBox="0 0 60 60" fill="none" xmlns="http://www.w3.org/2000/svg">
  <defs>
    <linearGradient id="bgGradient" x1="0" y1="0" x2="0" y2="1">
      <stop offset="0%" stop-color="#f3f4f8"/>
      <stop offset="100%" stop-color="#e0e2e7"/>
    </linearGradient>
    <linearGradient id="chartGradient" x1="0" y1="0" x2="0" y2="1">
      <stop offset="0%" stop-color="#1d4ed8"/>
      <stop offset="100%" stop-color="#2563eb"/>
    </linearGradient>
    <linearGradient id="fillGradient" x1="0" y1="0" x2="0" y2="1">
      <stop offset="0%" stop-color="#3b82f6" stop-opacity="0.2"/>
      <stop offset="100%" stop-color="#1d4ed8" stop-opacity="0.1"/>
    </linearGradient>
    <filter id="shadowFilter" x="-10%" y="-10%" width="120%" height="120%">
      <feDropShadow dx="0" dy="1" stdDeviation="1.5" flood-color="#000" flood-opacity="0.08"/>
    </filter>
  </defs>
  
  <!-- Background -->
  <rect width="60" height="60" rx="16" fill="url(#bgGradient)" filter="url(#shadowFilter)"/>
  
  <!-- Chart area -->
  <g transform="translate(10, 14)">
    <!-- Chart fill area -->
    <path d="M 0,26 Q 5,20 10,18 Q 15,16 20,12 Q 25,8 30,14 Q 35,20 40,10 L 40,30 L 0,30 Z" 
          fill="url(#fillGradient)"/>
    
    <!-- Main chart line -->
    <path d="M 0,26 Q 5,20 10,18 Q 15,16 20,12 Q 25,8 30,14 Q 35,20 40,10" 
          stroke="url(#chartGradient)" 
          stroke-width="3" 
          stroke-linecap="round" 
          fill="none"/>
    
    <!-- Data points -->
    <circle cx="0" cy="26" r="2.2" fill="#ffffff" stroke="#1d4ed8" stroke-width="2"/>
    <circle cx="8" cy="19" r="2.2" fill="#ffffff" stroke="#1d4ed8" stroke-width="2"/>
    <circle cx="16" cy="15" r="2.2" fill="#ffffff" stroke="#1d4ed8" stroke-width="2"/>
    <circle cx="24" cy="10" r="2.2" fill="#ffffff" stroke="#1d4ed8" stroke-width="2"/>
    <circle cx="32" cy="16" r="2.2" fill="#ffffff" stroke="#1d4ed8" stroke-width="2"/>
    <circle cx="40" cy="10" r="2.2" fill="#ffffff" stroke="#1d4ed8" stroke-width="2"/>
  </g>
</svg>
