<svg width="60" height="60" viewBox="0 0 60 60" fill="none" xmlns="http://www.w3.org/2000/svg">
  <defs>
    <linearGradient id="bgGradientDark" x1="0" y1="0" x2="0" y2="1">
      <stop offset="0%" stop-color="#232526"/>
      <stop offset="100%" stop-color="#181a1b"/>
    </linearGradient>
    <linearGradient id="chartGradientDark" x1="0" y1="0" x2="0" y2="1">
      <stop offset="0%" stop-color="#3b82f6"/>
      <stop offset="100%" stop-color="#2563eb"/>
    </linearGradient>
    <linearGradient id="fillGradientDark" x1="0" y1="0" x2="0" y2="1">
      <stop offset="0%" stop-color="#60a5fa" stop-opacity="0.25"/>
      <stop offset="100%" stop-color="#3b82f6" stop-opacity="0.15"/>
    </linearGradient>
    <filter id="shadowFilterDark" x="-10%" y="-10%" width="120%" height="120%">
      <feDropShadow dx="0" dy="1" stdDeviation="1.5" flood-color="#000" flood-opacity="0.25"/>
    </filter>
  </defs>
  
  <!-- Background -->
  <rect width="60" height="60" rx="16" fill="url(#bgGradientDark)" filter="url(#shadowFilterDark)"/>
  
  <!-- Chart area -->
  <g transform="translate(10, 14)">
    <!-- Chart fill area -->
    <path d="M 0,26 Q 5,20 10,18 Q 15,16 20,12 Q 25,8 30,14 Q 35,20 40,10 L 40,30 L 0,30 Z" 
          fill="url(#fillGradientDark)"/>
    
    <!-- Main chart line -->
    <path d="M 0,26 Q 5,20 10,18 Q 15,16 20,12 Q 25,8 30,14 Q 35,20 40,10" 
          stroke="url(#chartGradientDark)" 
          stroke-width="3" 
          stroke-linecap="round" 
          fill="none"/>
    
    <!-- Data points -->
    <circle cx="0" cy="26" r="2.2" fill="#232526" stroke="#3b82f6" stroke-width="2"/>
    <circle cx="8" cy="19" r="2.2" fill="#232526" stroke="#3b82f6" stroke-width="2"/>
    <circle cx="16" cy="15" r="2.2" fill="#232526" stroke="#3b82f6" stroke-width="2"/>
    <circle cx="24" cy="10" r="2.2" fill="#232526" stroke="#3b82f6" stroke-width="2"/>
    <circle cx="32" cy="16" r="2.2" fill="#232526" stroke="#3b82f6" stroke-width="2"/>
    <circle cx="40" cy="10" r="2.2" fill="#232526" stroke="#3b82f6" stroke-width="2"/>
  </g>
</svg>
